<?xml version="1.0" encoding="utf-8"?>
<!-- Generator: Adobe Illustrator 17.0.0, SVG Export Plug-In . SVG Version: 6.00 Build 0)  -->
<!DOCTYPE svg PUBLIC "-//W3C//DTD SVG 1.1//EN" "http://www.w3.org/Graphics/SVG/1.1/DTD/svg11.dtd">
<svg version="1.1" id="Layer_1" xmlns="http://www.w3.org/2000/svg" xmlns:xlink="http://www.w3.org/1999/xlink" x="0px" y="0px"
	 width="70.99px" height="88.684px" viewBox="0 0 70.99 88.684" enable-background="new 0 0 70.99 88.684" xml:space="preserve">
<g>
	<rect x="2.174" y="0" fill="#F4F4F4" width="68.816" height="88.684"/>
	<g>
		<path fill="#231F20" d="M23.304,7.564h2.799c0.522,0,1.044,0.089,1.566,0.267c0.522,0.178,0.994,0.459,1.417,0.841
			c0.422,0.383,0.764,0.873,1.025,1.469c0.261,0.597,0.392,1.313,0.392,2.15c0,0.81-0.131,1.511-0.392,2.103
			c-0.261,0.592-0.603,1.081-1.025,1.469c-0.423,0.387-0.895,0.677-1.417,0.868c-0.523,0.191-1.045,0.287-1.566,0.287h-2.799V7.564z
			 M24.444,15.857h1.428c0.491,0,0.946-0.08,1.365-0.24c0.419-0.16,0.779-0.392,1.083-0.694c0.303-0.303,0.539-0.677,0.709-1.122
			c0.169-0.445,0.253-0.948,0.253-1.509c0-0.587-0.084-1.104-0.253-1.549c-0.169-0.445-0.405-0.817-0.709-1.115
			c-0.303-0.298-0.664-0.525-1.083-0.681c-0.419-0.156-0.874-0.234-1.365-0.234h-1.428V15.857z"/>
		<path fill="#231F20" d="M52.555,17.019H51.43v-4.086l-2.982-5.369h1.373l2.205,4.274l2.217-4.274h1.294l-2.982,5.369V17.019z"/>
		<path fill="#231F20" d="M27.637,33.044h-1.322v-8.293h-3.031V23.59h7.385v1.162h-3.032V33.044z"/>
		<path fill="#231F20" d="M23.257,39.614h1.288v3.953h4.657v-3.953h1.301v9.455h-1.301v-4.327h-4.657v4.327h-1.288V39.614z"/>
		<path fill="#231F20" d="M37.623,47.894h4.941v1.175h-6.263v-9.455h6.062v1.162h-4.74v2.831h4.46v1.135h-4.46V47.894z"/>
		<path fill="#231F20" d="M26.976,65.334c-0.623,0-1.167-0.104-1.629-0.314c-0.463-0.209-0.846-0.487-1.149-0.835
			c-0.303-0.347-0.528-0.746-0.674-1.195c-0.147-0.449-0.22-0.915-0.22-1.395v-5.956h1.322v5.876c0,0.32,0.04,0.638,0.12,0.955
			c0.08,0.316,0.211,0.599,0.394,0.848c0.182,0.249,0.423,0.45,0.721,0.601c0.298,0.152,0.67,0.227,1.115,0.227
			c0.436,0,0.806-0.076,1.108-0.227c0.303-0.151,0.545-0.352,0.728-0.601c0.183-0.249,0.314-0.531,0.394-0.848
			c0.08-0.316,0.12-0.635,0.12-0.955v-5.876h1.322v5.956c0,0.481-0.073,0.946-0.22,1.395c-0.147,0.45-0.372,0.848-0.674,1.195
			c-0.303,0.347-0.686,0.625-1.149,0.835C28.142,65.23,27.599,65.334,26.976,65.334z"/>
		<path fill="#231F20" d="M41.573,57.389c-0.187-0.258-0.441-0.469-0.761-0.635c-0.32-0.165-0.681-0.247-1.081-0.247
			c-0.214,0-0.43,0.029-0.648,0.086c-0.218,0.058-0.416,0.152-0.594,0.28c-0.178,0.129-0.323,0.29-0.434,0.481
			c-0.112,0.192-0.167,0.421-0.167,0.688c0,0.258,0.051,0.474,0.154,0.648c0.102,0.173,0.24,0.321,0.414,0.441
			c0.173,0.12,0.378,0.223,0.614,0.307c0.236,0.085,0.487,0.172,0.755,0.26c0.321,0.098,0.646,0.209,0.975,0.334
			c0.329,0.124,0.628,0.289,0.894,0.494c0.267,0.205,0.485,0.461,0.655,0.768c0.169,0.307,0.254,0.697,0.254,1.169
			c0,0.49-0.092,0.915-0.274,1.275c-0.183,0.36-0.425,0.659-0.728,0.894c-0.303,0.236-0.652,0.412-1.048,0.528
			c-0.396,0.116-0.804,0.173-1.222,0.173c-0.597,0-1.173-0.116-1.73-0.347c-0.556-0.231-1.017-0.574-1.382-1.028l1.029-0.868
			c0.222,0.329,0.521,0.596,0.894,0.801s0.779,0.307,1.216,0.307c0.222,0,0.445-0.031,0.667-0.093
			c0.223-0.062,0.425-0.16,0.608-0.293c0.182-0.134,0.331-0.3,0.447-0.501c0.116-0.201,0.173-0.443,0.173-0.728
			c0-0.285-0.06-0.523-0.18-0.715s-0.283-0.354-0.487-0.487c-0.205-0.134-0.443-0.247-0.715-0.341
			c-0.272-0.093-0.559-0.189-0.861-0.287c-0.303-0.089-0.601-0.198-0.895-0.327c-0.294-0.129-0.556-0.294-0.788-0.494
			c-0.231-0.2-0.418-0.447-0.561-0.741c-0.142-0.293-0.214-0.659-0.214-1.095c0-0.472,0.096-0.876,0.287-1.215
			s0.441-0.619,0.748-0.842c0.308-0.222,0.655-0.385,1.042-0.487c0.387-0.102,0.777-0.153,1.169-0.153
			c0.552,0,1.068,0.098,1.549,0.293c0.481,0.196,0.868,0.459,1.162,0.788L41.573,57.389z"/>
		<path fill="#231F20" d="M11.664,33.044H10.52l3.191-9.455h0.936l3.16,9.455h-1.164l-0.748-2.323h-3.493L11.664,33.044z
			 M12.765,29.559h2.755l-1.372-4.434L12.765,29.559z"/>
		<path fill="#231F20" d="M11.774,17.019H10.63l3.191-9.455h0.936l3.16,9.455h-1.164l-0.748-2.323h-3.493L11.774,17.019z
			 M12.875,13.534h2.755L14.258,9.1L12.875,13.534z"/>
		<path fill="#231F20" d="M36.932,17.019h-1.143l3.191-9.455h0.936l3.16,9.455h-1.164l-0.748-2.323H37.67L36.932,17.019z
			 M38.034,13.534h2.755L39.416,9.1L38.034,13.534z"/>
		<path fill="#231F20" d="M14.934,49.069h-1.322v-8.293h-3.031v-1.162h7.385v1.162h-3.032V49.069z"/>
		<path fill="#231F20" d="M39.437,78.919h0.021l2.111-7.235h1.556v9.416h-1v-7.873h-0.021l-2.374,7.873h-0.636l-2.364-7.873h-0.02
			v7.873h-0.97v-9.416h1.555L39.437,78.919z"/>
		<path fill="#231F20" d="M14.169,62.894h0.021l2.111-7.235h1.556v9.416h-1v-7.873h-0.021l-2.374,7.873h-0.636l-2.364-7.873h-0.02
			v7.873h-0.97v-9.416h1.555L14.169,62.894z"/>
		<path fill="#231F20" d="M12.464,79.944h4.941v1.175h-6.263v-9.455h6.062v1.162h-4.74v2.831h4.46v1.135h-4.46V79.944z"/>
		<path fill="#231F20" d="M26.976,81.359c-0.623,0-1.167-0.104-1.629-0.314c-0.463-0.209-0.846-0.487-1.149-0.835
			c-0.303-0.347-0.528-0.746-0.674-1.195c-0.147-0.449-0.22-0.915-0.22-1.395v-5.956h1.322v5.876c0,0.32,0.04,0.638,0.12,0.955
			c0.08,0.316,0.211,0.599,0.394,0.848c0.182,0.249,0.423,0.45,0.721,0.601c0.298,0.152,0.67,0.227,1.115,0.227
			c0.436,0,0.806-0.076,1.108-0.227c0.303-0.151,0.545-0.352,0.728-0.601c0.183-0.249,0.314-0.531,0.394-0.848
			c0.08-0.316,0.12-0.635,0.12-0.955v-5.876h1.322v5.956c0,0.481-0.073,0.946-0.22,1.395c-0.147,0.45-0.372,0.848-0.674,1.195
			c-0.303,0.347-0.686,0.625-1.149,0.835C28.142,81.255,27.599,81.359,26.976,81.359z"/>
		<rect x="0" y="0" fill="none" stroke="#231F20" stroke-width="2" stroke-miterlimit="10" width="70.99" height="88.684"/>
	</g>
</g>
</svg>
